<svg fill="currentColor" height="800px" width="800px" version="1.1" id="Layer_1" stroke-width="2" xmlns="http://www.w3.org/2000/svg" xmlns:xlink="http://www.w3.org/1999/xlink" 
	 viewBox="0 0 491.52 491.52" xml:space="preserve">
<g>
	<g>
		<path d="M491.52,419.84V0H0v419.84h153.6v51.2h-40.96v20.48h266.24v-20.48h-40.96v-51.2H491.52z M20.48,20.48h450.56v317.44H20.48
			V20.48z M317.44,471.04H174.08v-51.2h143.36V471.04z M20.48,399.36V358.4h450.56v40.96H20.48z"/>
	</g>
</g>
<g>
	<g>
		<path d="M409.6,51.2c-16.94,0-30.72,13.78-30.72,30.72c0,4.728,1.162,9.157,3.078,13.162l-51.356,51.356
			c-4.005-1.916-8.434-3.078-13.162-3.078c-13.332,0-24.593,8.586-28.833,20.48h-75.454c-4.241-11.894-15.501-20.48-28.833-20.48
			c-16.94,0-30.72,13.78-30.72,30.72c0,4.727,1.162,9.154,3.077,13.159L95.085,248.84c-4.006-1.917-8.436-3.079-13.165-3.079
			c-16.94,0-30.72,13.78-30.72,30.72c0,16.94,13.78,30.72,30.72,30.72s30.72-13.78,30.72-30.72c0-4.727-1.161-9.155-3.076-13.159
			l61.592-61.601c4.006,1.917,8.435,3.08,13.164,3.08c13.332,0,24.592-8.586,28.833-20.48h75.454
			c4.241,11.894,15.501,20.48,28.833,20.48c16.94,0,30.72-13.78,30.72-30.72c0-4.728-1.162-9.157-3.078-13.162l51.356-51.356
			c4.005,1.916,8.434,3.078,13.162,3.078c16.94,0,30.72-13.78,30.72-30.72S426.54,51.2,409.6,51.2z M81.92,286.72
			c-5.65,0-10.24-4.595-10.24-10.24c0-5.645,4.59-10.24,10.24-10.24c5.65,0,10.24,4.595,10.24,10.24
			C92.16,282.125,87.57,286.72,81.92,286.72z M184.32,184.32c-5.65,0-10.24-4.595-10.24-10.24c0-5.645,4.59-10.24,10.24-10.24
			s10.24,4.595,10.24,10.24C194.56,179.725,189.97,184.32,184.32,184.32z M317.44,184.32c-5.65,0-10.24-4.595-10.24-10.24
			c0-5.645,4.59-10.24,10.24-10.24c5.65,0,10.24,4.595,10.24,10.24C327.68,179.725,323.09,184.32,317.44,184.32z M409.6,92.16
			c-5.65,0-10.24-4.595-10.24-10.24c0-5.645,4.59-10.24,10.24-10.24c5.65,0,10.24,4.595,10.24,10.24
			C419.84,87.565,415.25,92.16,409.6,92.16z"/>
	</g>
</g>
</svg>