<?xml version="1.0" encoding="iso-8859-1"?>
<!-- Uploaded to: SVG Repo, www.svgrepo.com, Generator: SVG Repo Mixer Tools -->
<svg fill="currentColor" height="800px" width="800px" version="1.1" id="Layer_1" xmlns="http://www.w3.org/2000/svg" xmlns:xlink="http://www.w3.org/1999/xlink" 
	 viewBox="0 0 512.001 512.001" xml:space="preserve">
<g>
	<g>
		<path d="M437.126,74.944c-99.836-99.834-262.279-99.836-362.112,0c-15.733,15.732-29.331,33.372-40.416,52.431
			c-2.544,4.374-1.061,9.984,3.315,12.529c4.373,2.545,9.983,1.061,12.529-3.314c10.289-17.691,22.917-34.072,37.532-48.685
			c44.018-44.018,101.147-67.116,158.931-69.325v233.624l-145.49,145.488c-3.579,3.579-3.579,9.38,0,12.959
			c1.79,1.79,4.135,2.684,6.481,2.684c2.345,0,4.691-0.894,6.481-2.684l145.488-145.488h91.213c5.062,0,9.164-4.103,9.164-9.164
			c0-5.061-4.102-9.164-9.164-9.164h-85.846V18.578c57.786,2.209,114.913,25.307,158.931,69.325
			c44.018,44.018,67.115,101.147,69.325,158.933H388.954c-5.062,0-9.164,4.103-9.164,9.164s4.102,9.164,9.164,9.164H493.49
			c-2.209,57.786-25.307,114.913-69.325,158.933c-92.688,92.689-243.503,92.689-336.192,0
			c-32.212-32.212-54.373-72.644-64.087-116.926c-9.46-43.13-6.803-87.92,7.684-129.529c1.664-4.78-0.861-10.003-5.641-11.668
			c-4.774-1.664-10.003,0.861-11.668,5.641c-15.603,44.81-18.464,93.042-8.277,139.483c10.465,47.709,34.336,91.265,69.028,125.958
			c49.918,49.917,115.488,74.876,181.057,74.876s131.139-24.959,181.057-74.876C536.959,337.221,536.959,174.779,437.126,74.944z"/>
	</g>
</g>
</svg>